<svg xmlns="http://www.w3.org/2000/svg" style="display: none;">
    <symbol id="Gears-in-head" viewBox="0 0 222.6 325.9">
      <title>Gears-in-head icon</title>
      <path d="M152.9 137.8c-2.8-3.1 8.1 27.2 8.9 27.4.9.3 5.9-9.4 7-11.8 0 0-4.3 15.1-2.9 16.1 1.4 1 6.1-5.9 6.1-5.9s-6 14.1-2.1 28.4c2.7 2.5 23.2-24.6 23.2-24.6s9.4-11.5 10-19.1-2.3-19.2-2.3-19.2-45.1 11.8-47.9 8.7z"/><g><path stroke="#000" stroke-width="2" stroke-miterlimit="10" d="M159.7 113.7c0-.2 1.6-.1 4.5.3 3 .4 7.3 1 12.9 2 2.8.5 5.9 1.1 9.4 1.9 1.7.4 3.5.8 5.4 1.5.5.1 1 .4 1.5.6.6.2.9.5 1.4.7.8.5 1.7 1 2.6 1.6.5.3.9.6 1.4 1 .6.4 1.1.9 1.5 1.5.9 1.1 1.4 2.6.9 4-.1.3-.3.7-.4 1l-.6.9c-.5.6-1.1 1-1.8 1.3l-1.1.5-.9.3c-.6.2-1.2.4-1.7.5-4.6 1.2-9.5 2-14.7 2.8-5.2.8-10.6 1.5-16.2 2.1-2.8.3-5.7.6-8.7.9l-.5.1-.5.1-1.2.2c-.8.1-1.5.2-2.3.3-1.5.2-3.1.3-4.6.5-12.3 1-25.6 1.7-39.6 2.2-7 .2-14.3.4-21.7.4-7.4 0-15.1-.1-23-1-3.9-.5-7.9-1.2-11.8-2.1-3.9-.8-7.8-1.8-11.8-2.9-3.9-1.1-7.9-2.3-11.8-3.6-2-.6-3.9-1.3-5.9-2l-2.4-.9c-.4 4.5-.8 9.1-1.1 13.7-.5 5.9-1 11.8-1.7 17.9l-.2 1-.1.6c0 .2-.1.6-.2.9-.1.6-.4 1.2-.7 1.8-.3.5-.9 1.1-1 1.3-.4.4-.5.7-.7 1.1-.2.4-.3 1-.4 1.6-.1.6-.2 1.2-.2 1.9s-.1 1.4 0 2c.1 1.2.3 2.4.8 3.6.9 2.4 2.6 4.5 4.5 7.1.5.6 1 1.4 1.5 2.1l.3.6c.1.2.3.5.4.8.3.6.4 1.2.4 1.7.2 1 .2 1.8.2 2.7v2.5c-.1 5.4-.4 10.6-.7 15.8-.3 5.2-.5 10.3-.4 15.3 0 2.5.2 5 .4 7.3l.3 1.7c.1.6.2 1.1.4 1.7.3 1.1.6 2.3 1 3.4 1.6 4.6 3.6 9 5.8 13.4 4.4 8.7 9.2 17.2 14.2 25.2l1 1.5.9 1.6c.6 1 1.1 2.1 1.7 3.1 1.1 2.1 2.3 4.1 3.4 6.1 2.3 4.1 4.5 8.1 6.8 12.1 1.1 2 2.2 3.9 3.4 5.9l.8 1.4c.3.5.6 1 .8 1.3.1.2.1.2.2.3 0 .1.1.1.3.2.1.1.3.2.5.3l.6.3c1.7.8 3.8 1.5 5.8 2.1 2 .6 4.1 1.1 6.2 1.5h1.2l1.6.1c1.1 0 2.1.1 3.2.1 2.1.1 4.2.1 6.2.1 2.1 0 4.1-.1 6.1-.2s4-.3 5.8-.6c.2 0 .2 0 .4-.1l.7-.3 1.3-.5c.9-.3 1.8-.8 2.6-1.2.9-.4 1.7-.9 2.6-1.3.9-.4 1.7-.9 2.5-1.4 3.3-1.9 6.4-4 9.4-6.2 6-4.3 11.3-9.1 16.3-13.8 9.9-9.4 18-18.8 24.7-27.4 3.3-4.3 6.3-8.4 8.9-12.3 1.3-1.9 2.4-3.8 3.4-5.7.5-.9.9-1.8 1.3-2.7.2-.4.4-.9.5-1.3.1-.5.3-.9.4-1.4 1-3.6 1.6-7 2-9.9.4-2.9.7-5.4.9-7.4.4-4 .6-6.2.8-6.2.2 0 .4 2.1.3 6.2 0 2-.1 4.6-.3 7.5-.3 3-.6 6.4-1.5 10.3-.1.5-.2 1-.4 1.5-.1.5-.3 1-.5 1.5-.4 1-.8 2-1.3 3-1 2-2.1 4-3.3 6-2.5 4.1-5.3 8.3-8.6 12.7-6.5 8.9-14.6 18.5-24.5 28.4-5 4.9-10.4 9.8-16.5 14.4-3 2.3-6.3 4.5-9.7 6.6-.9.5-1.7 1-2.6 1.5-.9.5-1.8 1-2.7 1.4-.9.4-1.9.9-2.8 1.3l-1.5.6-.7.3-.5.2-.6.1c-2.2.4-4.3.6-6.4.8-2.1.2-4.2.2-6.4.3h-6.4c-1.1 0-2.2 0-3.2-.1l-1.6-.1h-1.4c-.2 0-.5-.1-.6-.1-2.2-.4-4.3-.9-6.5-1.5s-4.4-1.3-6.7-2.3c-.3-.1-.6-.3-.9-.5-.3-.2-.6-.3-.9-.6-.3-.2-.7-.5-1-.8-.3-.3-.7-.7-.8-1-.4-.6-.7-1-1-1.5l-.9-1.5c-1.1-2-2.3-3.9-3.4-5.9-2.3-4-4.5-8-6.9-12-1.1-2-2.3-4.1-3.5-6.1-.6-1-1.2-2.1-1.7-3.1l-.8-1.5-.9-1.5c-5.1-8.2-10-16.6-14.6-25.6-2.3-4.5-4.4-9.1-6.1-14.1-.5-1.2-.8-2.5-1.2-3.8-.2-.6-.3-1.3-.5-2-.1-.7-.3-1.4-.4-2.1-.3-2.7-.4-5.3-.5-7.9-.1-5.2.1-10.4.4-15.7.2-5.2.6-10.4.7-15.5v-2.2c0-.7-.1-1.4-.2-2-.1-.7-.1-.4-.4-1.1-.3-.5-.7-1.1-1.2-1.7-1.7-2.3-4-5.1-5.2-8.5-.6-1.7-1-3.5-1.1-5.3-.1-.9 0-1.7 0-2.6.1-.9.1-1.7.3-2.6.2-.9.4-1.8.8-2.8.4-1 1.1-2 1.7-2.7.4-.4.3-.4.4-.5.1-.1.1-.2.1-.3v-.2l.1-.5.1-1.1c.6-5.9 1.2-11.9 1.7-17.7.6-7.1 1.2-14.2 1.8-21.1 1.7.7 3.4 1.3 5.1 1.9l4.2 1.5c1.9.7 3.9 1.3 5.8 2 3.9 1.3 7.7 2.5 11.5 3.6s7.6 2.1 11.4 2.9c3.8.9 7.6 1.6 11.3 2.1 7.4 1 15 1.1 22.3 1.2 7.4.1 14.5 0 21.5-.1 14-.3 27.2-.8 39.4-1.6 1.5-.1 3-.2 4.5-.4.7-.1 1.5-.1 2.2-.2l1-.1.7-.1.6-.1c2.9-.3 5.8-.5 8.7-.7 5.6-.5 11-1.1 16.2-1.7 5.1-.7 10-1.3 14.4-2.3.5-.1 1.1-.3 1.6-.4l.7-.2.5-.2c.3-.1.6-.3.9-.5.2-.3.4-.5.5-.9.3-.6 0-1.4-.4-1.8l-.7-.7c-.3-.2-.7-.6-1.1-.8-.8-.6-1.6-1.1-2.5-1.6-.4-.3-.8-.6-1.2-.7-.4-.2-.7-.4-1.1-.5-1.7-.6-3.4-1.1-5.1-1.6-3.3-.9-6.4-1.6-9.2-2.3-11.1-2.5-17.2-3.8-17.1-4.1z"/><path stroke="#000" stroke-miterlimit="10" d="M171.8 201.6c.2 0 .8 2.2 1.8 6.2.5 2 1.1 4.5 2 7.2.2.7.5 1.4.7 2.1.1.3.3.7.5 1 .1.1.2.2.2.3l.4.4c1.2 1.2 2.4 2.5 3.7 3.6 1.3 1.1 2.9 2.1 4.6 2.3.8.1 1.7-.1 2.7-.3 1-.2 2-.5 2.9-.9 2-.7 4-1.6 6-2.7 1-.5 2-1.1 2.9-1.8.9-.6 1.8-1.4 2.3-2.1.5-.8 1.1-2 1.6-3.1s1.1-2.3 1.6-3.4c1.1-2.3 2.1-4.7 3.1-7.2 2.1-4.9 4.1-10 5.9-15.3.6-1.9 1.2-3.7 1.5-5.5l.1-1.2v-1.4c-.1-.9-.1-1.8-.3-2.8-.5-3.6-1.5-7.2-3.2-10.1-.4-.7-.9-1.3-1.5-1.8-.3-.3-.5-.4-.8-.6-.3-.2-.7-.3-1.1-.5-1.4-.6-3-.7-4.6-.6-.4 0-.8.1-1.1.1-.2 0-.4.1-.5.1l-.2.1h-.1c-1.2.5-2.3 1.1-3.5 1.6-1.1.5-2.2 1-3.3 1.6-.5.3-1.1.5-1.6.8l-.8.4-.4.2-.2.1h-.1c1.2-2.2 2.5-4.4 3.6-6.4 1.2-2.3 1.6-3.1 2.2-4.4 1.1-2.3 2.1-4.6 2.8-6.8.4-1.1.5-2.1.5-3.1s-.1-2.1-.1-3.1c-.1-2-.3-3.9-.4-5.6-.6-6.7-.9-10.6-.7-10.6.2 0 1.1 3.7 2.1 10.4.3 1.7.5 3.5.7 5.6.1 1 .2 2.1.3 3.2 0 1.2-.2 2.5-.5 3.6-.6 2.4-1.6 4.7-2.7 7.2-1.4 3.1-1.5 3.3-2 4.3h.1l.1-.1.3-.1.5-.3c.3-.2.7-.4 1.1-.5.3-.2.7-.3 1-.5.2-.1.3-.1.5-.2l.4-.1c.2-.1.5-.1.7-.1.5-.1.9-.1 1.4-.2 1.9-.1 3.8 0 5.7.7.5.2.9.4 1.4.6.5.3 1 .6 1.4.9.8.7 1.4 1.5 2 2.4 1.1 1.7 1.8 3.5 2.4 5.4.6 1.9 1 3.8 1.3 5.8l.3 3v1.5c-.1.6-.1 1.2-.2 1.7-.4 2.1-1 4-1.6 5.9-1.8 5.4-3.9 10.6-6.1 15.5-1.1 2.5-2.1 4.9-3.2 7.2-.6 1.2-1.1 2.3-1.7 3.5-.3.6-.6 1.1-.9 1.7-.1.3-.3.6-.5.9-.2.3-.3.6-.6.9-.9 1.2-2 2-3 2.7-1 .7-2.1 1.3-3.2 1.9-2.1 1.1-4.3 2-6.4 2.7-1.1.4-2.1.7-3.2.9-1.1.2-2.2.4-3.5.3-2.4-.4-4.2-1.7-5.6-3-1.4-1.3-2.6-2.7-3.7-3.9-.1-.2-.3-.3-.4-.5-.2-.2-.3-.5-.5-.7-.2-.4-.4-.8-.5-1.2-.3-.8-.5-1.5-.7-2.3-.8-2.9-1.2-5.4-1.6-7.5-.5-3.7-.7-6-.5-6zM205 172.7c.3-.1.6-.1 1-.2.4 0 .8 0 1.1.1.6.1 1.3.3 1.8.7.6.4 1.1.9 1.4 1.4.4.5.6 1.1.7 1.6.5 2.1.1 3.8-.2 5.1-.7 2.7-1.7 4.1-2 4-.4-.1-.1-1.8 0-4.3.1-1.2.1-2.8-.4-4-.2-.6-.6-1.1-1-1.3-.2-.1-.5-.2-.9-.3-.2-.1-.3 0-.4 0-.1 0-.3.1-.5.1 0 0-.1 0-.3.1-.2.1-.5.2-.8.3-.7.4-1.8 1-3.1 1.9-2.5 1.8-5.7 4.7-8.7 7.8-3 3-5.9 6.2-8 8.6l-3.5 4-2.2-1.9s5.6-6.7 11.7-12.8c3.1-3.1 6.3-6.1 9-8.1 1.3-1 2.6-1.8 3.5-2.2.5-.2.9-.4 1.2-.5.4 0 .6-.1.6-.1zM201.8 192.2c1.1.8 1.9 1.9 2.3 2.9.5 1.1.6 2.1.6 2.9 0 1.7-.6 2.6-1 2.5-.4-.1-.6-1-1-2.2-.5-1.2-1.2-2.7-2.6-3.8 0 0-.2-.2-.6-.4-.4-.2-.9-.5-1.7-.8-1.4-.5-3.6-.5-5.7 0-2.2.5-4.3 1.4-5.8 2.2-1.5.8-2.5 1.4-2.5 1.4l-1.6-2.4s1.1-.7 2.7-1.5c1.7-.9 4-1.9 6.5-2.5 2.5-.6 5.3-.6 7.3.1 1 .3 1.7.7 2.3 1.1.5.3.8.5.8.5zM189.4 205.8c.2 1.6-.4 3.1-1 3.8-.7.8-1.4.9-1.7.7-.3-.3-.2-.9-.2-1.6.1-.7.1-1.6 0-2.5 0 0 0-.5-.3-1.4-.3-.8-.9-1.9-1.7-2.9-.8-1-1.7-2-2.4-2.6-.7-.7-1.2-1.1-1.2-1.1l1.8-2.3s.6.5 1.4 1.2c.8.7 1.8 1.8 2.7 3 .9 1.2 1.7 2.5 2.1 3.7.5 1.1.5 2 .5 2zM58.1 113c10.6-.4 19.1.4 19.1 1.2 0 .8-8.5 1.3-19 1.7 0 0-2.8.1-7 .4-4.2.3-9.8.7-15.4 1.5-2.8.4-5.5.9-8.1 1.4-2.5.6-4.9 1.2-6.8 1.9-1.9.7-3.4 1.5-4.3 2.1-.4.3-.8.6-1 .7l-.3.3-2-2.1.4-.4c.3-.2.7-.5 1.3-1 1.2-.7 2.8-1.6 4.9-2.4 4.2-1.5 9.8-2.7 15.5-3.5 5.7-.8 11.4-1.2 15.6-1.5 4.2-.2 7.1-.3 7.1-.3zM35.4 257.6c-.6 2-.5 3.7-.1 5 .4 1.3 1 2.1.7 2.4-.2.3-1.4 0-2.5-1.4-.6-.7-1.1-1.8-1.2-3-.2-1.2-.1-2.6.3-3.9l.3-.9c.2-.6.5-1.3 1-2.2.5-.9 1.1-2 1.9-3 .8-1.1 2-2.1 3.2-2.8.6-.4 1.2-.6 1.7-.9l1.5-.9c1-.6 1.9-1.2 2.6-1.8 1.5-1.1 2.3-2 2.3-2l2 2.1s-1 1-2.6 2.2c-.8.6-1.8 1.3-2.8 2-.5.3-1.1.7-1.7 1-.6.3-1.2.6-1.6.9-1.9 1.1-3.2 3.1-4 4.7-.4.8-.7 1.5-.9 2 0 .2-.1.5-.1.5zm83.9 7.3c-.4 0-.6-1.7-1.3-4.1-.7-2.4-2.2-5.5-4.7-8.4-2.5-2.8-5.5-4.9-7.6-6.3-2.2-1.4-3.6-2.3-3.4-2.7.1-.4 1.9-.2 4.4.9 2.5 1 6.5 1.7 9.8 4.9 1.4 1.6 2.7 3.1 3.5 4.9.8 1.7.8 4.5.9 5.9.3 2.8-1.2 4.9-1.6 4.9z"/><path stroke="#000" stroke-width="2" stroke-miterlimit="10" d="M113.3 252.2s-19 8.5-23.9 9.7-18.3 1.7-27.1 1c-8.7-.8-27-7.6-27-7.6" fill="none"/><path stroke="#000" stroke-miterlimit="10" d="M113.6 253.1c.3.2-2.5 4.3-8.1 9.9-2.8 2.8-5.2 6.3-9.6 9.4-4.3 3-9.6 6.8-15.9 8-1.5.3-3.5 0-5 0s-3.9-.4-5.3-.7c-2.9-.5-5.5-1.8-7.9-3-4.9-2.3-8.6-5.4-11.5-8.2-2.8-2.8-4.8-5.4-6.1-7.2-1.2-1.8-1.8-3-1.6-3.1.2-.1 1 .8 2.5 2.4 1.5 1.6 3.6 3.9 6.6 6.4 2.9 2.5 5.6 2.6 10.2 4.6 2.3 1 4.1 1.1 6.7 1.5 2.1.1 3.5.1 4.8.1 1.4 0 3.9.1 6.9-.2 6-.6 8.8-.4 13-3.2 4.3-2.8 7.8-5.8 10.8-8.3 5.8-5.1 9.1-8.7 9.5-8.4zm-26.4 33.2c.3.3-.2 2.3-2.3 3.9-1.1.8-2.7 1.7-4.4 2.4-1.7.7-4 .7-6.2.7s-4.2-.6-5.9-1.4c-1.7-.7-3.1-1.6-4.1-2.4-2.2-1.6-4-3.7-3.7-4 .3-.3 2.5 1.1 4.8 2.2 2.3 1 5.5 1.2 9 1.3 3.5 0 6.7-.2 9-1.3 2.2-.9 3.6-1.7 3.8-1.4zM56 198.5c-1 14.6-2.5 26.3-3.3 26.3-.8-.1-.6-11.9.4-26.5 0 0-3.5-7.2-3.6-7.9-.4-2.7.4-5.4-1.6-8.2-1-1.4-5.1-8.9-5.9-9.3-3.2-1.9-6.9-3.2-10.4-4.2s-6.8-1.7-9.7-2.3c-5.7-1-9.6-1.4-9.6-1.4l.3-2.9s4 .3 9.9 1.4c2.9.5 6.4 1.3 10 2.3 3.6 1.1 7.4 2.4 11 4.5.9.5 1.8 1 2.6 1.7l1.2.9 1.1 1c1.5 1.4 2.8 2.9 3.9 4.5 2.2 3.2 3.6 6.7 4 9.9.1.8.2 1.6.2 2.3v1.1c0 .3-.1.6-.1.9-.1 1.2-.2 2.2-.2 3.1-.1 1.8-.2 2.8-.2 2.8zM48 183c-.2.4-1.6.1-3.8-.3-1.1-.2-2.4-.4-3.9-.6-.7-.1-1.5-.1-2.2-.1-.8 0-1.5.1-2.3.2-3.2.6-6.1 1.8-8.3 2.6-2.2.8-3.6 1.2-3.8.9-.2-.3.9-1.4 2.8-2.7 1-.6 2.2-1.3 3.7-2 1.4-.6 3.1-1.3 5-1.6.9-.2 2-.2 2.9-.2.9 0 1.7.2 2.5.3 1.6.3 3 .8 4.1 1.2 2.3 1 3.4 2 3.3 2.3zM48.1 190.2c.2.3-.5 1.3-2.2 2.4-.8.5-1.9 1-3.3 1.3-.7.1-1.5.2-2.3.1-.8-.1-1.6-.4-2.3-.7-1.5-.7-2.8-2-3.4-3.4-.6-1.4-.5-2.7-.4-3.7.3-2 1.1-3 1.4-2.9.4.1.4 1.3.6 2.9.1.8.3 1.8.8 2.6s1.1 1.5 2.1 1.9c1.1.5 2 .7 3.1.6 1 0 2-.3 2.8-.5 1.8-.6 2.9-1 3.1-.6zm-16.4-21.6c2.1.9 5.3 2.4 6.6 3.4 1.2 1 1.4 3.8 1.1 4.1-.3.2-4.3-.1-5.7-.6-1.4-.5-2-1.4-4.1-2.3 0 0-1.5-.9-2-1.1-.5-.2-1.8-.8-2.7-1.1-1.7-.7-3.9-.8-6.2-1.5-2.3-.7-3.3-.7-5.1-1-1.8-.3-2.1-1.7-2.1-1.7l.1-2.9s1.4 0 3.3.3 4.4.9 6.8 1.7c4.8 1.3 10 2.7 10 2.7z"/><ellipse stroke="#000" stroke-miterlimit="10" cx="43.1" cy="185.4" rx="3.8" ry="3.3"/><path stroke="#000" stroke-miterlimit="10" d="M73.9 245.1c.2.3-.9 1.5-3 2.9-1.1.7-2.3 1.4-3.9 2.1-.8.3-1.6.7-2.5 1-.5.1-1 .3-1.5.3-.3 0-.6.1-.9.1-.3 0-.6 0-.9-.1-2.2-.4-3.8-1.3-5.3-2.1s-2.7-1.7-3.7-2.4c-2-1.5-3-2.9-2.7-3.2.3-.3 1.6.4 3.8 1.4 1.1.5 2.4 1.1 3.8 1.8 1.4.6 3.1 1.3 4.6 1.6.2 0 .3 0 .5.1h.5c.4-.1.7-.1 1.1-.2.8-.2 1.5-.4 2.3-.7 1.5-.5 2.8-1 3.9-1.5 2.2-.9 3.7-1.4 3.9-1.1zM86.1 235.3c.2-.1.5 0 .9.5.4.4 1 1.1 1.4 2.3.2.6.3 1.2.3 2-.1.8-.3 1.6-.8 2.4-.5.8-1.2 1.4-2.1 1.9-.4.2-1 .4-1.6.5-.3 0-.6.1-1 .1-2.9.5-5.6 1.1-7.6 1.4-2 .3-3.2.5-3.4.1-.2-.4.9-1.3 2.8-2.1s4.6-1.7 7.7-2.3c.4-.1.8-.1 1.3-.2.2 0 .3 0 .5-.1.4-.2.8-.5 1.1-.8.6-.7.7-1.6.7-2.4-.1-1.9-.6-3.1-.2-3.3zm-36.6 8.5c-.3.3-1 0-1.6-.6-.6-.6-1.2-1.6-1.6-2.8-.8-2.3-.7-4.4.1-4.6.8-.2 1.9 1.5 2.6 3.6.8 2.2 1 3.9.5 4.4zM79 199.1c-.2 0-.2-1.3.1-3.7.3-2.3.9-5.7 2.1-9.8 1.2-4.1 2.9-8.9 6.1-13.7 1.6-2.4 3.5-4.8 6.1-6.8 2.5-2 5.7-3.5 9-4.1 6.6-1 20.1-.3 20.1-.3s10.2 2.8 14.1 4.5c3.9 1.7 6.6 3.7 8.6 4.9 2 1.2 4.6 3.8 4.5 3.9-.1.2-4.2-1-6.4-1.9-2.2-.9-8.8-2.1-8.8-2.1h-10.9l-13.3 1.6s-4.9 1.3-7 2.4c-2.2 1.7-7.6 4.8-7.6 4.8l-10 7.7-5.6 8.9c.1.2-.9 3.7-1.1 3.7zM126.9 180.4c-.1.4-2.3.1-5.7-.2-3.4-.3-8.2-.4-13.3.4-2.5.4-5 .9-7 1.7-2 .8-3.7 1.7-4.8 2.8-1.2 1.1-1.8 2.2-2.2 3-.4.8-.5 1.4-.7 1.4-.2 0-.4-.6-.3-1.6.1-1 .5-2.6 1.8-4.2 1.2-1.5 3.1-2.9 5.3-3.9 2.3-1 4.8-1.7 7.6-2.1 5.5-.8 10.5-.3 14 .5 3.4.8 5.4 1.8 5.3 2.2zM130.6 188.3c-.2 0-.4-.2-.8-.4-.3-.3-.8-.6-1.5-1-1.4-.8-3.5-1.7-5.9-2.6-4.8-1.9-8.8-3.5-8.6-4.3.2-.8 4.6-.4 9.7 1.6 2.5 1 4.7 2.3 6.1 3.7.7.7 1.1 1.4 1.2 2 .1.3.1.5 0 .7-.1.1-.1.2-.2.3zm-15.5 2.5c1.4.1 2.8-.4 3.9-.9 1.1-.4 1.8-.7 2.1-.4.3.3 0 1.1-1 2.1-.5.5-1.1 1-2 1.4-.9.4-1.9.7-3.1.6 0 0-.3 0-.9-.1-.6-.1-1.3-.3-2.2-.7-1.7-.8-3.4-2.4-4.6-4.4-.6-1-1-2.1-1.2-3.2-.2-1.1-.3-2.1-.2-3 .1-1.7.5-2.9.5-2.9l2.8.8s-.1.2-.1.6c-.1.4-.2.9-.2 1.6 0 .7 0 1.4.2 2.2.2.8.5 1.6.9 2.4.9 1.5 2.3 2.8 3.3 3.3.5.3 1 .4 1.3.4.3.3.5.2.5.2z"/><ellipse stroke="#000" stroke-miterlimit="10" cx="117.3" cy="183.7" rx="4" ry="3.9"/><path d="M148.4 225.9c1.9-7.1 8.1-12 8.1-12"/><path stroke="#000" stroke-miterlimit="10" d="M156.2 214.1c.5.6-1.4 3-3.5 6.1-1 1.5-2 2.9-2.6 3.9-.7 1-1.2 1.7-1.6 1.5-.4-.1-.5-1-.3-2.3.3-1.3 1-3.1 2.2-4.8 2.3-3.3 5.3-5 5.8-4.4z"/><path d="M129.2 250.7l2-3.9"/><ellipse transform="rotate(-63.435 130.215 248.757)" stroke="#000" stroke-miterlimit="10" cx="130.2" cy="248.7" rx="2.1" ry="1.4"/><path stroke="#000" stroke-miterlimit="10" d="M152.4 138c-.4-.8 5.6 22 9.4 27.2 1 1.3 6.4-9.5 6.4-9.5s-2.8 13.3-2.8 14.4c0 1.1 5.7-4.9 5.7-4.9s-3.4 10.3-2.9 16.9c.5 6.6-.3 10.4 2.9 10.4s24.9-28 24.9-28" fill="none"/></g><path class="blue" d="M90.9 97.7l-2.8-1c-.2-1.7-.6-3.3-1.2-4.8l2-2.2c-.8-1.8-1.9-3.5-3.2-5.1l-2.9.8c-1.1-1.2-2.4-2.3-3.8-3.2l.3-3c-1.7-1-3.6-1.7-5.6-2.2l-1.8 2.3c-1.2-.2-2.5-.4-3.7-.4H67l-1.5-2.6c-2 .2-4 .7-5.8 1.5l-.1 3c-1.5.7-2.9 1.6-4.2 2.7l-2.7-1.2c-1.5 1.4-2.7 2.9-3.8 4.6l1.7 2.5c-.8 1.4-1.4 3-1.8 4.6l-2.9.7c-.3 1.4-.4 2.9-.4 4.4 0 .5 0 1 .1 1.5l2.8 1c.2 1.7.6 3.3 1.2 4.8l-2 2.2c.8 1.8 1.9 3.5 3.2 5.1l2.9-.8c1.1 1.2 2.4 2.3 3.8 3.2l-.3 3c1.7 1 3.6 1.7 5.6 2.2l1.8-2.3c1.2.2 2.5.4 3.7.4h1.2L71 122c2-.2 4-.7 5.8-1.5l.1-3c1.5-.7 2.9-1.6 4.2-2.7l2.7 1.2c1.5-1.4 2.7-2.9 3.8-4.6l-1.7-2.5c.8-1.4 1.4-3 1.8-4.6l2.9-.7c.3-1.4.4-2.9.4-4.4-.1-.4-.1-1-.1-1.5zM68.1 108c-4.8 0-8.7-3.9-8.7-8.7 0-4.8 3.9-8.7 8.7-8.7 4.8 0 8.7 3.9 8.7 8.7 0 4.8-3.9 8.7-8.7 8.7z"/><path class="green" d="M144.3 84.5c.4-2 .6-4 .7-6.1l-5.9-1.9c0-1.9-.2-3.7-.5-5.5l5.5-3.1c-.5-2-1.1-3.9-1.8-5.8l-6.2.7c-.8-1.8-1.7-3.4-2.8-5l3.7-5c-1.2-1.6-2.5-3.1-4-4.5l-5.4 3.2c-1.5-1.3-3.1-2.5-4.7-3.5l1.4-6.1c-1.7-.9-3.5-1.8-5.4-2.4l-3.6 5.1c-1.9-.6-3.8-1-5.9-1.3l-1.2-6.1c-1-.1-2-.1-2.9-.1-1 0-2 0-2.9.1l-1.2 6.1c-2 .2-4 .7-5.9 1.3l-3.6-5.1c-1.9.7-3.7 1.5-5.4 2.4l1.4 6.1c-1.7 1-3.3 2.2-4.7 3.5l-5.4-3.2c-1.4 1.4-2.7 2.9-4 4.5l3.7 5c-1.1 1.6-2 3.3-2.8 5l-6.2-.7c-.7 1.9-1.3 3.8-1.8 5.8L72 71c-.3 1.8-.5 3.6-.5 5.5l-5.9 1.9c.1 2.1.3 4.1.7 6.1l6.3.6c.4 1.7 1 3.4 1.7 5l-4.7 4.1c.9 1.9 2 3.7 3.2 5.4l6-2c1.1 1.3 2.2 2.6 3.5 3.8l-2.6 5.7c1.6 1.4 3.3 2.6 5.2 3.7l4.6-4.3c1.5.8 3 1.5 4.6 2l-.1 6.3c2 .6 4.1 1 6.2 1.3l2.5-5.8c.8.1 1.7.1 2.5.1s1.7 0 2.5-.1l2.5 5.8c2.1-.3 4.2-.7 6.2-1.3l-.1-6.3c1.6-.6 3.1-1.2 4.6-2l4.6 4.3c1.8-1.1 3.5-2.3 5.2-3.7l-2.6-5.7c1.3-1.2 2.4-2.4 3.5-3.8l6 2c1.2-1.7 2.3-3.5 3.2-5.4l-4.7-4.1c.7-1.6 1.3-3.3 1.7-5l6.5-.6zm-39 6.6c-7.6 0-13.7-6.2-13.7-13.7s6.2-13.7 13.7-13.7c7.6 0 13.7 6.2 13.7 13.7s-6.1 13.7-13.7 13.7z"/><path class="red" d="M163.2 101.2L160 100c-.2-1.9-.7-3.8-1.4-5.5l2.3-2.6c-1-2.1-2.2-4.1-3.7-5.8l-3.3.9c-1.3-1.4-2.8-2.6-4.4-3.6l.3-3.4c-2-1.1-4.1-2-6.4-2.5l-2.1 2.7c-1.4-.3-2.8-.4-4.3-.4h-1.4l-1.8-2.9c-2.3.3-4.6.9-6.7 1.7L127 82c-1.7.8-3.4 1.9-4.8 3.1l-3.2-1.4c-1.7 1.6-3.2 3.4-4.4 5.3l1.9 2.8c-.9 1.7-1.6 3.4-2.1 5.3l-3.3.8c-.3 1.7-.5 3.4-.5 5.1 0 .6 0 1.2.1 1.8l3.2 1.2c.2 1.9.7 3.8 1.4 5.5L113 114c1 2.1 2.2 4.1 3.7 5.8l3.3-.9c1.3 1.4 2.8 2.6 4.4 3.6l-.3 3.4c2 1.1 4.1 2 6.4 2.5l2.1-2.7c1.4.3 2.8.4 4.3.4h1.4l1.8 2.9c2.3-.3 4.6-.9 6.7-1.7l.1-3.4c1.7-.8 3.4-1.9 4.8-3.1l3.2 1.4c1.7-1.6 3.2-3.4 4.4-5.3l-1.9-2.8c.9-1.7 1.6-3.4 2.1-5.3l3.3-.8c.3-1.7.5-3.4.5-5.1 0-.6 0-1.2-.1-1.7zM136.9 113c-5.6 0-10.1-4.5-10.1-10.1s4.5-10.1 10.1-10.1 10.1 4.5 10.1 10.1-4.5 10.1-10.1 10.1z"/><path d="M154.4 74.3l7.7-3-.4-8.1 9.3-4.1 2.7 5-9 1.2.1 8.6-10.4.4M129.9 37l6.4-8.7-6.1-8.6 7.3-10.9 6.4 3.6-9 7.6 6.1 9.4-11.1 7.6m-43.1-1.1l-5.4-12.1-13 1.2-7.2-14.5 7.7-4.7 2.7 14.3 13.8-.7 1.4 16.5M51.5 70.1l-8-4.2-6.3 6-10-4.7 2.2-5.7 7.4 6.5 7.1-6.2 7.6 8.3" stroke="#000" stroke-miterlimit="10"/>
    </symbol></svg>